<?xml version="1.0" encoding="UTF-8" standalone="no" ?>
<!DOCTYPE svg PUBLIC "-//W3C//DTD SVG 1.1//EN" "http://www.w3.org/Graphics/SVG/1.1/DTD/svg11.dtd">
<svg xmlns="http://www.w3.org/2000/svg" xmlns:xlink="http://www.w3.org/1999/xlink" version="1.1" width="1107.1903000675" height="150.9999999992" viewBox="44.113830651349986 81.5512820517 1107.1903000675 150.9999999992" xml:space="preserve">
<desc>Created with Fabric.js 5.3.0</desc>
<defs>
</defs>
<g transform="matrix(1 0 0 1 597.7089806851 157.0512820513)" id="AygltfuljLU_DgaAkD1_z"  >
<g style="" vector-effect="non-scaling-stroke"   >
		<g transform="matrix(1 0 0 1 479.4141547883 0.3424543348)" id="1YI9FkXSoU24W5prTXKSU"  >
<g style="" vector-effect="non-scaling-stroke"   >
		<g transform="matrix(1.3256584711 0 0 1.3256584711 -19.134268641 -19.4171404999)" id="iFNGFsanVYH7A2grsDsSp"  >
<path style="stroke: none; stroke-width: 1; stroke-dasharray: none; stroke-linecap: butt; stroke-dashoffset: 0; stroke-linejoin: miter; stroke-miterlimit: 4; fill: rgb(241,241,241); fill-rule: nonzero; opacity: 1;" vector-effect="non-scaling-stroke"  transform=" translate(-41.1468924982, -41.5473344998)" d="M 54.918785 0.00091927389 C 50.335132 0.02221727 45.957846 0.41313697 42.106285 1.0946693 C 30.760069 3.0991731 28.700036 7.2947714 28.700035 15.032169 L 28.700035 25.250919 L 55.512535 25.250919 L 55.512535 28.657169 L 28.700035 28.657169 L 18.637535 28.657169 C 10.845075999999999 28.657169 4.0217762 33.340886 1.8875351999999985 42.250918999999996 C -0.5742847800000015 52.463885 -0.6834798800000015 58.83694199999999 1.8875351999999985 69.500919 C 3.7934634999999988 77.438771 8.345078399999998 83.094667 16.137535 83.094669 L 25.356285 83.094669 L 25.356285 70.844669 C 25.356285 61.994766999999996 33.013429 54.18842099999999 42.106285 54.188418999999996 L 68.887535 54.188418999999996 C 76.342486 54.188418999999996 82.293788 48.05025499999999 82.293785 40.563418999999996 L 82.293785 15.032168999999996 C 82.293785 7.765830399999996 76.163805 2.3073918999999954 68.887535 1.094669299999996 C 64.281548 0.32794397 59.502438 -0.02037903 54.918785 0.00091927389 Z M 40.418785 8.2196694 C 43.188332 8.2196694 45.450035 10.518315000000001 45.450035 13.344669 C 45.450033 16.161005 43.188332 18.438419 40.418785 18.438419 C 37.639309 18.438418 35.387535 16.161004 35.387535 13.344669 C 35.387534 10.518315999999999 37.639309 8.2196694 40.418785 8.2196694 z" stroke-linecap="round" />
</g>
		<g transform="matrix(1.3256584711 0 0 1.3256584711 19.0232222617 18.9948094215)" id="hb8OLmNfyTQWVrv8rKawM"  >
<path style="stroke: none; stroke-width: 1; stroke-dasharray: none; stroke-linecap: butt; stroke-dashoffset: 0; stroke-linejoin: miter; stroke-miterlimit: 4; fill: rgb(241,241,241); fill-rule: nonzero; opacity: 1;" vector-effect="non-scaling-stroke"  transform=" translate(-69.9306944612, -70.5230856144)" d="M 85.637535 28.657169 L 85.637535 40.563418999999996 C 85.637535 49.794174 77.81164 57.563418 68.887535 57.563418999999996 L 42.106285 57.563418999999996 C 34.770452 57.563418999999996 28.700035999999997 63.841902 28.700035 71.188419 L 28.700035 96.71966599999999 C 28.700035 103.98601 35.018623 108.25998999999999 42.106285 110.34467 C 50.593616 112.84027999999999 58.732522 113.29129999999999 68.887535 110.34467 C 75.63769 108.39027999999999 82.293788 104.45706 82.293785 96.71966599999999 L 82.293785 86.500919 L 55.512535 86.500919 L 55.512535 83.094669 L 82.293785 83.094669 L 95.700039 83.094669 C 103.4925 83.094669 106.39629000000001 77.659261 109.10628 69.500919 C 111.90561 61.102033 111.7865 53.025143 109.10628 42.250918999999996 C 107.1805 34.493477999999996 103.50241 28.657168999999996 95.700039 28.657168999999996 z M 70.575035 93.313419 C 73.354513 93.313422 75.606285 95.590836 75.606285 98.40716599999999 C 75.606283 101.23351999999998 73.35451 103.53217 70.575035 103.53217 C 67.805485 103.53217 65.543785 101.23352 65.543785 98.40716599999999 C 65.543787 95.590836 67.805482 93.313419 70.575035 93.313419 z" stroke-linecap="round" />
</g>
</g>
</g>
		<g transform="matrix(1 0 0 1 -147.0617371697 0)" id="NU5k0VLDasnEeSCXwOtKQ"  >
<g style="" vector-effect="non-scaling-stroke"   >
		<g transform="matrix(1 0 0 1 79.5390486724 0.0062178743)" id="mJhrgvsT8gsUwTaOqNLbK"  >
<g style="" vector-effect="non-scaling-stroke"   >
		<g transform="matrix(1.2435748698 0 0 1.2435748632 -302.9845812781 0)" id="mQS4fWn_vqlfags4zJWp6"  >
<path style="stroke: none; stroke-width: 1; stroke-dasharray: none; stroke-linecap: butt; stroke-dashoffset: 0; stroke-linejoin: miter; stroke-miterlimit: 4; fill: rgb(241,241,241); fill-rule: nonzero; opacity: 1;" vector-effect="non-scaling-stroke"  transform=" translate(-146.825, -60.315)" d="M 127.93 90.47 L 149.08 90.47 L 165.73000000000002 30.159999999999997 L 154.23000000000002 30.159999999999997 C 148.52 30.159999999999997 143.52 33.97 142.00000000000003 39.47 L 127.92000000000003 90.47 Z" stroke-linecap="round" />
</g>
		<g transform="matrix(1.2435748698 0 0 1.2435748632 -79.2032834576 -0.0062178743)" id="2wdzmLjqISKoWEHUDcRaT"  >
<path style="stroke: none; stroke-width: 1; stroke-dasharray: none; stroke-linecap: butt; stroke-dashoffset: 0; stroke-linejoin: miter; stroke-miterlimit: 4; fill: rgb(241,241,241); fill-rule: nonzero; opacity: 1;" vector-effect="non-scaling-stroke"  transform=" translate(-326.775, -60.31)" d="M 347 30.16 L 292.15999999999997 30.16 L 275.51 90.47 L 297.09999999999997 90.47 L 301.07 76.1 L 333.14 76.1 C 339.47999999999996 76.1 345.34 75.38 350.53999999999996 73.97 C 355.77 72.55 360.15 70.53 363.54999999999995 67.96 C 366.94999999999993 65.39 369.15 62.38999999999999 370.06999999999994 59.03999999999999 L 373.4699999999999 46.69999999999999 L 378.0399999999999 30.149999999999988 L 346.9899999999999 30.149999999999988 Z M 351.75 47.22 L 348.63 58.54 C 348.08 60.519999999999996 346.62 62.14 344.27 63.33 C 341.89 64.53999999999999 339.15 65.13 335.88 65.13 L 304.11 65.13 L 310.72 41.14 L 353.42 41.14 L 351.74 47.22 Z" stroke-linecap="round" />
</g>
		<g transform="matrix(1.2435748698 0 0 1.2435748632 155.1158131607 -0.0062178743)" id="SU2JxxLLsHLW24M5tBz5Q"  >
<path style="stroke: none; stroke-width: 1; stroke-dasharray: none; stroke-linecap: butt; stroke-dashoffset: 0; stroke-linejoin: miter; stroke-miterlimit: 4; fill: rgb(241,241,241); fill-rule: nonzero; opacity: 1;" vector-effect="non-scaling-stroke"  transform=" translate(-515.1987952283, -60.31)" d="M 537.27 67.71 C 536.25 71.39999999999999 533.8199999999999 74.41 530.03 76.64999999999999 C 526.29 78.86999999999999 522.02 79.47999999999999 517.0699999999999 79.47999999999999 L 503.11999999999995 79.47999999999999 C 498.06999999999994 79.47999999999999 494.12999999999994 78.85 491.65999999999997 76.60999999999999 C 489.16999999999996 74.33999999999999 488.41999999999996 71.30999999999999 489.43999999999994 67.61999999999999 L 493.47999999999996 52.98999999999999 L 496.74999999999994 41.12999999999999 L 527.9399999999999 41.12999999999999 C 532.8 41.12999999999999 536.65 41.61999999999999 539.0899999999999 43.58999999999999 C 541.55 45.57999999999999 542.3299999999999 48.249999999999986 541.43 51.53999999999999 L 541.3199999999999 51.92999999999999 L 562.6199999999999 51.92999999999999 L 562.7299999999999 51.53999999999999 C 563.93 47.18999999999999 563.42 43.29999999999999 561.2099999999999 39.99999999999999 C 558.9999999999999 36.68999999999999 555.2599999999999 34.07999999999999 550.0999999999999 32.239999999999995 C 544.9499999999999 30.399999999999995 538.3899999999999 30.149999999999995 530.9699999999999 30.149999999999995 L 478.18999999999994 30.149999999999995 L 472.0299999999999 52.47999999999999 L 467.7099999999999 68.13 C 466.4599999999999 72.64999999999999 466.94999999999993 76.71 469.1599999999999 80.17999999999999 C 471.37999999999994 83.66 475.1799999999999 86.38999999999999 480.4699999999999 88.28999999999999 C 485.7499999999999 90.19 492.4699999999999 90.47 500.0899999999999 90.47 L 514.04 90.47 C 521.56 90.47 528.38 90.17 534.66 88.25 C 540.9499999999999 86.32 546.25 83.55 550.4 80.01 C 554.54 76.48 557.29 72.34 558.5699999999999 67.71000000000001 L 558.68 67.32000000000001 L 537.38 67.32000000000001 L 537.27 67.71000000000001 Z" stroke-linecap="round" />
</g>
		<g transform="matrix(1.2435748698 0 0 1.2435748632 37.7683747053 0.0062178743)" id="JB2NhNTXD_lkNdVuzTRhc"  >
<path style="stroke: none; stroke-width: 1; stroke-dasharray: none; stroke-linecap: butt; stroke-dashoffset: 0; stroke-linejoin: miter; stroke-miterlimit: 4; fill: rgb(241,241,241); fill-rule: nonzero; opacity: 1;" vector-effect="non-scaling-stroke"  transform=" translate(-420.8358088853, -60.32)" d="M 466.44 90.47 L 387.11 90.47 C 382.75 90.47 379.34000000000003 89.7 377.02000000000004 88.15 C 374.68000000000006 86.61 373.84000000000003 84.57000000000001 374.52000000000004 82.10000000000001 L 388.86 30.16000000000001 L 467.38 30.16000000000001 L 464.35 41.15000000000001 L 407.43 41.15000000000001 L 403.84000000000003 54.15000000000001 L 450.11 54.15000000000001 L 447.08000000000004 65.13000000000001 L 400.81000000000006 65.13000000000001 L 396.84000000000003 79.50000000000001 L 457.66 79.50000000000001 C 458.73 85.83000000000001 466.44 90.48000000000002 466.44 90.48000000000002 Z" stroke-linecap="round" />
</g>
		<g transform="matrix(1.2435748698 0 0 1.2435748632 270.2163834588 0)" id="rTpUXCCOPYJSUexUR9sf0"  >
<path style="stroke: none; stroke-width: 1; stroke-dasharray: none; stroke-linecap: butt; stroke-dashoffset: 0; stroke-linejoin: miter; stroke-miterlimit: 4; fill: rgb(241,241,241); fill-rule: nonzero; opacity: 1;" vector-effect="non-scaling-stroke"  transform=" translate(-607.755, -60.315)" d="M 653 30.16 L 649.97 41.15 L 618.59 41.15 L 604.97 90.47 L 583.37 90.47 L 596.99 41.15 L 572.67 41.15 C 570.89 34.26 562.5 30.159999999999997 562.5 30.159999999999997 L 653.01 30.159999999999997 Z" stroke-linecap="round" />
</g>
		<g transform="matrix(1.2435748698 0 0 1.2435748632 -210.6615829441 -0.0062178743)" id="9yes0tdqSoh4Ie49sCYL5"  >
<path style="stroke: none; stroke-width: 1; stroke-dasharray: none; stroke-linecap: butt; stroke-dashoffset: 0; stroke-linejoin: miter; stroke-miterlimit: 4; fill: rgb(241,241,241); fill-rule: nonzero; opacity: 1;" vector-effect="non-scaling-stroke"  transform=" translate(-221.065, -60.31)" d="M 220.1 65.12 L 196.54 30.150000000000006 L 177.42 30.150000000000006 L 160.76999999999998 90.46000000000001 L 181.92 90.46000000000001 L 192.76999999999998 51.150000000000006 L 211.85999999999999 79.48 L 217.52999999999997 79.48 C 223.08999999999997 79.48 227.03999999999996 76.78 228.97999999999996 75.21000000000001 L 253.95999999999995 52.96000000000001 L 243.55999999999995 90.47 L 264.7099999999999 90.47 L 281.3599999999999 30.159999999999997 L 259.3499999999999 30.159999999999997 L 220.08999999999992 65.13 Z" stroke-linecap="round" />
</g>
</g>
</g>
		<g transform="matrix(1.2435748698 0 0 1.2435748632 -360.0335784302 0)" id="ZVJO5WMMII258kd9M9MlX"  >
<path style="stroke: none; stroke-width: 1; stroke-dasharray: none; stroke-linecap: butt; stroke-dashoffset: 0; stroke-linejoin: miter; stroke-miterlimit: 4; fill: rgb(241,241,241); fill-rule: nonzero; opacity: 1;" vector-effect="non-scaling-stroke"  transform=" translate(-36.99, -60.31)" d="M 33.35 120.62 L 0 120.62 L 34.76 69.02000000000001 C 38.48 63.49000000000001 39.61 56.610000000000014 37.83 50.19000000000001 L 23.98 0 L 57.33 0 L 73.97999999999999 60.31 L 33.34999999999999 120.62 Z" stroke-linecap="round" />
</g>
</g>
</g>
		<g transform="matrix(0.0421895936 0 0 2.344854403 332.6933085015 0.1043077882)" id="ldwQnrCOdd58RS_KxjGtt"  >
<path style="stroke: rgb(63,124,68); stroke-width: 0; stroke-dasharray: none; stroke-linecap: butt; stroke-dashoffset: 0; stroke-linejoin: miter; stroke-miterlimit: 4; fill: rgb(241,241,241); fill-rule: nonzero; opacity: 1;" vector-effect="non-scaling-stroke"  transform=" translate(0, 0)" d="M -32.05128 -31.23116 C -32.05128 -31.6841 -11.643619999999999 -32.05129 13.530500000000004 -32.05129 L 32.051280000000006 -32.05129 L 32.051280000000006 31.23115 L 32.051280000000006 31.23115 C 32.051280000000006 31.68409 11.643620000000006 32.05128 -13.530499999999996 32.05128 L -32.05127999999999 32.05128 z" stroke-linecap="round" />
</g>
</g>
</g>
</svg>